<svg width="19" height="20" viewBox="0 0 19 20" fill="none" xmlns="http://www.w3.org/2000/svg">
<path d="M17.9559 15.8248C17.4876 14.777 16.8081 13.8252 15.9552 13.0225C15.1049 12.2174 14.0975 11.5756 12.9889 11.1323C12.979 11.1277 12.969 11.1253 12.9591 11.1206C14.5056 10.0653 15.5109 8.34642 15.5109 6.40705C15.5109 3.19432 12.7556 0.591309 9.35488 0.591309C5.95419 0.591309 3.19889 3.19432 3.19889 6.40705C3.19889 8.34642 4.2042 10.0653 5.75065 11.123C5.74072 11.1277 5.73079 11.13 5.72086 11.1347C4.60881 11.5779 3.61095 12.2134 2.75457 13.0248C1.90243 13.8281 1.22303 14.7798 0.753872 15.8272C0.292973 16.8525 0.0443994 17.9519 0.0216075 19.0657C0.020945 19.0907 0.0255918 19.1156 0.0352743 19.1389C0.0449569 19.1622 0.0594791 19.1835 0.0779854 19.2014C0.0964917 19.2193 0.118608 19.2335 0.14303 19.2433C0.167452 19.253 0.193687 19.258 0.220188 19.258H1.70954C1.81876 19.258 1.90564 19.1759 1.90812 19.0751C1.95776 17.2647 2.72726 15.5692 4.08754 14.2841C5.49498 12.9545 7.36411 12.2228 9.35488 12.2228C11.3456 12.2228 13.2148 12.9545 14.6222 14.2841C15.9825 15.5692 16.752 17.2647 16.8016 19.0751C16.8041 19.1782 16.891 19.258 17.0002 19.258H18.4896C18.5161 19.258 18.5423 19.253 18.5667 19.2433C18.5912 19.2335 18.6133 19.2193 18.6318 19.2014C18.6503 19.1835 18.6648 19.1622 18.6745 19.1389C18.6842 19.1156 18.6888 19.0907 18.6882 19.0657C18.6633 17.9447 18.4176 16.8543 17.9559 15.8248ZM9.35488 10.4406C8.21552 10.4406 7.14319 10.0208 6.33646 9.25865C5.52973 8.4965 5.0854 7.48344 5.0854 6.40705C5.0854 5.33067 5.52973 4.31761 6.33646 3.55546C7.14319 2.79332 8.21552 2.37355 9.35488 2.37355C10.4942 2.37355 11.5666 2.79332 12.3733 3.55546C13.18 4.31761 13.6244 5.33067 13.6244 6.40705C13.6244 7.48344 13.18 8.4965 12.3733 9.25865C11.5666 10.0208 10.4942 10.4406 9.35488 10.4406Z"/>
</svg>
