<svg width="21" height="18" viewBox="0 0 21 18" fill="none" xmlns="http://www.w3.org/2000/svg">
<path d="M18.9826 10.5932L20.6241 3.28075C20.7426 2.75277 20.3462 2.25 19.8115 2.25H6.1732L5.85493 0.674648C5.77563 0.281988 5.43438 0 5.03851 0H1.47848C1.01823 0 0.645142 0.377754 0.645142 0.84375V1.40625C0.645142 1.87225 1.01823 2.25 1.47848 2.25H3.90497L6.34414 14.3239C5.76059 14.6637 5.36736 15.3008 5.36736 16.0312C5.36736 17.1186 6.23792 18 7.31181 18C8.3857 18 9.25626 17.1186 9.25626 16.0312C9.25626 15.4802 9.0324 14.9824 8.67209 14.625H15.9515C15.5912 14.9824 15.3674 15.4802 15.3674 16.0312C15.3674 17.1186 16.2379 18 17.3118 18C18.3857 18 19.2563 17.1186 19.2563 16.0312C19.2563 15.2518 18.8088 14.5782 18.1598 14.2592L18.3513 13.4057C18.4698 12.8778 18.0735 12.375 17.5387 12.375H8.21865L7.99139 11.25H18.17C18.5591 11.25 18.8964 10.9774 18.9826 10.5932Z"/>
</svg>
