<svg width="17" height="17" viewBox="0 0 17 17" fill="none" xmlns="http://www.w3.org/2000/svg">
<path fill-rule="evenodd" clip-rule="evenodd" d="M12.5263 2.68421V1.78947C12.5263 1.31488 12.3378 0.859716 12.0022 0.524125C11.6666 0.188533 11.2114 0 10.7368 0H5.36842C4.89382 0 4.43866 0.188533 4.10307 0.524125C3.76748 0.859716 3.57895 1.31488 3.57895 1.78947V2.68421H0.894737C0.657438 2.68421 0.429858 2.77848 0.262062 2.94627C0.0942666 3.11407 0 3.34165 0 3.57895C0 3.81625 0.0942666 4.04383 0.262062 4.21162C0.429858 4.37942 0.657438 4.47368 0.894737 4.47368H1.78947V14.3158C1.78947 15.0277 2.07227 15.7104 2.57566 16.2138C3.07905 16.7172 3.76179 17 4.47368 17H11.6316C12.3435 17 13.0262 16.7172 13.5296 16.2138C14.033 15.7104 14.3158 15.0277 14.3158 14.3158V4.47368H15.2105C15.4478 4.47368 15.6754 4.37942 15.8432 4.21162C16.011 4.04383 16.1053 3.81625 16.1053 3.57895C16.1053 3.34165 16.011 3.11407 15.8432 2.94627C15.6754 2.77848 15.4478 2.68421 15.2105 2.68421H12.5263ZM10.7368 1.78947H5.36842V2.68421H10.7368V1.78947ZM12.5263 4.47368H3.57895V14.3158C3.57895 14.5531 3.67321 14.7807 3.84101 14.9485C4.00881 15.1163 4.23639 15.2105 4.47368 15.2105H11.6316C11.8689 15.2105 12.0965 15.1163 12.2643 14.9485C12.432 14.7807 12.5263 14.5531 12.5263 14.3158V4.47368Z" fill="#464646"/>
<path d="M5.36914 6.26318H7.15861V13.4211H5.36914V6.26318Z" fill="#464646"/>
<path d="M8.94727 6.26318H10.7367V13.4211H8.94727V6.26318Z" fill="#464646"/>
</svg>
