<svg width="17" height="17" viewBox="0 0 17 17" fill="none" xmlns="http://www.w3.org/2000/svg">
<path d="M11.9911 7.89286H9.10714V5.00893C9.10714 4.92545 9.03884 4.85714 8.95536 4.85714H8.04464C7.96116 4.85714 7.89286 4.92545 7.89286 5.00893V7.89286H5.00893C4.92545 7.89286 4.85714 7.96116 4.85714 8.04464V8.95536C4.85714 9.03884 4.92545 9.10714 5.00893 9.10714H7.89286V11.9911C7.89286 12.0746 7.96116 12.1429 8.04464 12.1429H8.95536C9.03884 12.1429 9.10714 12.0746 9.10714 11.9911V9.10714H11.9911C12.0746 9.10714 12.1429 9.03884 12.1429 8.95536V8.04464C12.1429 7.96116 12.0746 7.89286 11.9911 7.89286Z" fill="#464646"/>
<path d="M8.5 0C3.80603 0 0 3.80603 0 8.5C0 13.194 3.80603 17 8.5 17C13.194 17 17 13.194 17 8.5C17 3.80603 13.194 0 8.5 0ZM8.5 15.558C4.6029 15.558 1.44196 12.3971 1.44196 8.5C1.44196 4.6029 4.6029 1.44196 8.5 1.44196C12.3971 1.44196 15.558 4.6029 15.558 8.5C15.558 12.3971 12.3971 15.558 8.5 15.558Z" fill="#464646"/>
</svg>
