<svg width="20" height="20" viewBox="0 0 20 20" fill="none" xmlns="http://www.w3.org/2000/svg">
<path d="M8.55295 17.1059C10.4506 17.1055 12.2936 16.4702 13.7884 15.3012L18.4883 20.0011L20 18.4893L15.3002 13.7895C16.4698 12.2945 17.1054 10.4511 17.1059 8.55295C17.1059 3.83707 13.2688 0 8.55295 0C3.83707 0 0 3.83707 0 8.55295C0 13.2688 3.83707 17.1059 8.55295 17.1059ZM8.55295 2.13824C12.0907 2.13824 14.9677 5.01523 14.9677 8.55295C14.9677 12.0907 12.0907 14.9677 8.55295 14.9677C5.01523 14.9677 2.13824 12.0907 2.13824 8.55295C2.13824 5.01523 5.01523 2.13824 8.55295 2.13824Z" fill="#464646"/>
<path d="M10.0625 7.04121C10.4677 7.44748 10.6912 7.98418 10.6912 8.55295H12.8294C12.8304 7.99105 12.7199 7.43454 12.5045 6.91558C12.2891 6.39662 11.9729 5.92551 11.5743 5.52948C9.95563 3.91297 7.1492 3.91297 5.53162 5.52948L7.04121 7.04335C7.85374 6.23296 9.25429 6.2351 10.0625 7.04121Z" fill="#464646"/>
</svg>
